<svg xmlns="http://www.w3.org/2000/svg" id="hotel" width="27" height="26.55" viewBox="0 0 27 26.55">
    <defs>
        <style>
            .cls-1{fill:#fff}
        </style>
    </defs>
    <g id="Group_2" data-name="Group 2">
        <g id="Group_1" data-name="Group 1">
            <path id="Path_2" d="M26.55 8.05H21.6v-3.6a.45.45 0 0 0-.45-.45H5.85a.45.45 0 0 0-.45.45v6.3H.45a.45.45 0 0 0-.45.45v18.45a.45.45 0 1 0 .9 0v-18h4.5V30.1a.45.45 0 0 0 .45.45h15.3a.45.45 0 0 0 .45-.45V8.95h4.5v20.7a.45.45 0 1 0 .9 0V8.5a.45.45 0 0 0-.45-.45zm-13.5 21.6h-1.8V25.6h1.8zm2.7 0h-1.8V25.6h1.8zm4.95 0h-4.05v-4.5a.45.45 0 0 0-.45-.45h-5.4a.45.45 0 0 0-.45.45v4.5H6.3V4.9h14.4z" class="cls-1" data-name="Path 2" transform="translate(0 -4)"/>
        </g>
    </g>
    <g id="Group_4" data-name="Group 4" transform="translate(7.2 1.8)">
        <g id="Group_3" data-name="Group 3">
            <path id="Path_3" d="M131.15 36h-2.7a.45.45 0 0 0-.45.45v2.7a.45.45 0 0 0 .45.45h2.7a.45.45 0 0 0 .45-.45v-2.7a.45.45 0 0 0-.45-.45zm-.45 2.7h-1.8v-1.8h1.8z" class="cls-1" data-name="Path 3" transform="translate(-128 -36)"/>
        </g>
    </g>
    <g id="Group_6" data-name="Group 6" transform="translate(11.7 1.8)">
        <g id="Group_5" data-name="Group 5">
            <path id="Path_4" d="M211.15 36h-2.7a.45.45 0 0 0-.45.45v2.7a.45.45 0 0 0 .45.45h2.7a.45.45 0 0 0 .45-.45v-2.7a.45.45 0 0 0-.45-.45zm-.45 2.7h-1.8v-1.8h1.8z" class="cls-1" data-name="Path 4" transform="translate(-208 -36)"/>
        </g>
    </g>
    <g id="Group_8" data-name="Group 8" transform="translate(16.2 1.8)">
        <g id="Group_7" data-name="Group 7">
            <path id="Path_5" d="M291.15 36h-2.7a.45.45 0 0 0-.45.45v2.7a.45.45 0 0 0 .45.45h2.7a.45.45 0 0 0 .45-.45v-2.7a.45.45 0 0 0-.45-.45zm-.45 2.7h-1.8v-1.8h1.8z" class="cls-1" data-name="Path 5" transform="translate(-288 -36)"/>
        </g>
    </g>
    <g id="Group_10" data-name="Group 10" transform="translate(7.2 6.3)">
        <g id="Group_9" data-name="Group 9">
            <path id="Path_6" d="M131.15 116h-2.7a.45.45 0 0 0-.45.45v2.7a.45.45 0 0 0 .45.45h2.7a.45.45 0 0 0 .45-.45v-2.7a.45.45 0 0 0-.45-.45zm-.45 2.7h-1.8v-1.8h1.8z" class="cls-1" data-name="Path 6" transform="translate(-128 -116)"/>
        </g>
    </g>
    <g id="Group_12" data-name="Group 12" transform="translate(11.7 6.3)">
        <g id="Group_11" data-name="Group 11">
            <path id="Path_7" d="M211.15 116h-2.7a.45.45 0 0 0-.45.45v2.7a.45.45 0 0 0 .45.45h2.7a.45.45 0 0 0 .45-.45v-2.7a.45.45 0 0 0-.45-.45zm-.45 2.7h-1.8v-1.8h1.8z" class="cls-1" data-name="Path 7" transform="translate(-208 -116)"/>
        </g>
    </g>
    <g id="Group_14" data-name="Group 14" transform="translate(16.2 6.3)">
        <g id="Group_13" data-name="Group 13">
            <path id="Path_8" d="M291.15 116h-2.7a.45.45 0 0 0-.45.45v2.7a.45.45 0 0 0 .45.45h2.7a.45.45 0 0 0 .45-.45v-2.7a.45.45 0 0 0-.45-.45zm-.45 2.7h-1.8v-1.8h1.8z" class="cls-1" data-name="Path 8" transform="translate(-288 -116)"/>
        </g>
    </g>
    <g id="Group_16" data-name="Group 16" transform="translate(7.2 10.8)">
        <g id="Group_15" data-name="Group 15">
            <path id="Path_9" d="M131.15 196h-2.7a.45.45 0 0 0-.45.45v2.7a.45.45 0 0 0 .45.45h2.7a.45.45 0 0 0 .45-.45v-2.7a.45.45 0 0 0-.45-.45zm-.45 2.7h-1.8v-1.8h1.8z" class="cls-1" data-name="Path 9" transform="translate(-128 -196)"/>
        </g>
    </g>
    <g id="Group_18" data-name="Group 18" transform="translate(11.7 10.8)">
        <g id="Group_17" data-name="Group 17">
            <path id="Path_10" d="M211.15 196h-2.7a.45.45 0 0 0-.45.45v2.7a.45.45 0 0 0 .45.45h2.7a.45.45 0 0 0 .45-.45v-2.7a.45.45 0 0 0-.45-.45zm-.45 2.7h-1.8v-1.8h1.8z" class="cls-1" data-name="Path 10" transform="translate(-208 -196)"/>
        </g>
    </g>
    <g id="Group_20" data-name="Group 20" transform="translate(16.2 10.8)">
        <g id="Group_19" data-name="Group 19">
            <path id="Path_11" d="M291.15 196h-2.7a.45.45 0 0 0-.45.45v2.7a.45.45 0 0 0 .45.45h2.7a.45.45 0 0 0 .45-.45v-2.7a.45.45 0 0 0-.45-.45zm-.45 2.7h-1.8v-1.8h1.8z" class="cls-1" data-name="Path 11" transform="translate(-288 -196)"/>
        </g>
    </g>
    <g id="Group_22" data-name="Group 22" transform="translate(7.2 15.3)">
        <g id="Group_21" data-name="Group 21">
            <path id="Path_12" d="M131.15 276h-2.7a.45.45 0 0 0-.45.45v2.7a.45.45 0 0 0 .45.45h2.7a.45.45 0 0 0 .45-.45v-2.7a.45.45 0 0 0-.45-.45zm-.45 2.7h-1.8v-1.8h1.8z" class="cls-1" data-name="Path 12" transform="translate(-128 -276)"/>
        </g>
    </g>
    <g id="Group_24" data-name="Group 24" transform="translate(11.7 15.3)">
        <g id="Group_23" data-name="Group 23">
            <path id="Path_13" d="M211.15 276h-2.7a.45.45 0 0 0-.45.45v2.7a.45.45 0 0 0 .45.45h2.7a.45.45 0 0 0 .45-.45v-2.7a.45.45 0 0 0-.45-.45zm-.45 2.7h-1.8v-1.8h1.8z" class="cls-1" data-name="Path 13" transform="translate(-208 -276)"/>
        </g>
    </g>
    <g id="Group_26" data-name="Group 26" transform="translate(16.2 15.3)">
        <g id="Group_25" data-name="Group 25">
            <path id="Path_14" d="M291.15 276h-2.7a.45.45 0 0 0-.45.45v2.7a.45.45 0 0 0 .45.45h2.7a.45.45 0 0 0 .45-.45v-2.7a.45.45 0 0 0-.45-.45zm-.45 2.7h-1.8v-1.8h1.8z" class="cls-1" data-name="Path 14" transform="translate(-288 -276)"/>
        </g>
    </g>
    <g id="Group_28" data-name="Group 28" transform="translate(1.8 8.55)">
        <g id="Group_27" data-name="Group 27">
            <path id="Path_15" d="M32.9 156h-.45a.45.45 0 0 0-.45.45v.45a.45.45 0 0 0 .45.45h.45a.45.45 0 0 0 .45-.45v-.45a.45.45 0 0 0-.45-.45z" class="cls-1" data-name="Path 15" transform="translate(-32 -156)"/>
        </g>
    </g>
    <g id="Group_30" data-name="Group 30" transform="translate(3.6 8.55)">
        <g id="Group_29" data-name="Group 29">
            <path id="Path_16" d="M64.9 156h-.45a.45.45 0 0 0-.45.45v.45a.45.45 0 0 0 .45.45h.45a.45.45 0 0 0 .45-.45v-.45a.45.45 0 0 0-.45-.45z" class="cls-1" data-name="Path 16" transform="translate(-64 -156)"/>
        </g>
    </g>
    <g id="Group_32" data-name="Group 32" transform="translate(1.8 10.35)">
        <g id="Group_31" data-name="Group 31">
            <path id="Path_17" d="M32.9 188h-.45a.45.45 0 0 0-.45.45v.45a.45.45 0 0 0 .45.45h.45a.45.45 0 0 0 .45-.45v-.45a.45.45 0 0 0-.45-.45z" class="cls-1" data-name="Path 17" transform="translate(-32 -188)"/>
        </g>
    </g>
    <g id="Group_34" data-name="Group 34" transform="translate(3.6 10.35)">
        <g id="Group_33" data-name="Group 33">
            <path id="Path_18" d="M64.9 188h-.45a.45.45 0 0 0-.45.45v.45a.45.45 0 0 0 .45.45h.45a.45.45 0 0 0 .45-.45v-.45a.45.45 0 0 0-.45-.45z" class="cls-1" data-name="Path 18" transform="translate(-64 -188)"/>
        </g>
    </g>
    <g id="Group_36" data-name="Group 36" transform="translate(1.8 12.15)">
        <g id="Group_35" data-name="Group 35">
            <path id="Path_19" d="M32.9 220h-.45a.45.45 0 0 0-.45.45v.45a.45.45 0 0 0 .45.45h.45a.45.45 0 0 0 .45-.45v-.45a.45.45 0 0 0-.45-.45z" class="cls-1" data-name="Path 19" transform="translate(-32 -220)"/>
        </g>
    </g>
    <g id="Group_38" data-name="Group 38" transform="translate(3.6 12.15)">
        <g id="Group_37" data-name="Group 37">
            <path id="Path_20" d="M64.9 220h-.45a.45.45 0 0 0-.45.45v.45a.45.45 0 0 0 .45.45h.45a.45.45 0 0 0 .45-.45v-.45a.45.45 0 0 0-.45-.45z" class="cls-1" data-name="Path 20" transform="translate(-64 -220)"/>
        </g>
    </g>
    <g id="Group_40" data-name="Group 40" transform="translate(1.8 13.95)">
        <g id="Group_39" data-name="Group 39">
            <path id="Path_21" d="M32.9 252h-.45a.45.45 0 0 0-.45.45v.45a.45.45 0 0 0 .45.45h.45a.45.45 0 0 0 .45-.45v-.45a.45.45 0 0 0-.45-.45z" class="cls-1" data-name="Path 21" transform="translate(-32 -252)"/>
        </g>
    </g>
    <g id="Group_42" data-name="Group 42" transform="translate(3.6 13.95)">
        <g id="Group_41" data-name="Group 41">
            <path id="Path_22" d="M64.9 252h-.45a.45.45 0 0 0-.45.45v.45a.45.45 0 0 0 .45.45h.45a.45.45 0 0 0 .45-.45v-.45a.45.45 0 0 0-.45-.45z" class="cls-1" data-name="Path 22" transform="translate(-64 -252)"/>
        </g>
    </g>
    <g id="Group_44" data-name="Group 44" transform="translate(1.8 15.75)">
        <g id="Group_43" data-name="Group 43">
            <path id="Path_23" d="M32.9 284h-.45a.45.45 0 0 0-.45.45v.45a.45.45 0 0 0 .45.45h.45a.45.45 0 0 0 .45-.45v-.45a.45.45 0 0 0-.45-.45z" class="cls-1" data-name="Path 23" transform="translate(-32 -284)"/>
        </g>
    </g>
    <g id="Group_46" data-name="Group 46" transform="translate(3.6 15.75)">
        <g id="Group_45" data-name="Group 45">
            <path id="Path_24" d="M64.9 284h-.45a.45.45 0 0 0-.45.45v.45a.45.45 0 0 0 .45.45h.45a.45.45 0 0 0 .45-.45v-.45a.45.45 0 0 0-.45-.45z" class="cls-1" data-name="Path 24" transform="translate(-64 -284)"/>
        </g>
    </g>
    <g id="Group_48" data-name="Group 48" transform="translate(1.8 17.55)">
        <g id="Group_47" data-name="Group 47">
            <path id="Path_25" d="M32.9 316h-.45a.45.45 0 0 0-.45.45v.45a.45.45 0 0 0 .45.45h.45a.45.45 0 0 0 .45-.45v-.45a.45.45 0 0 0-.45-.45z" class="cls-1" data-name="Path 25" transform="translate(-32 -316)"/>
        </g>
    </g>
    <g id="Group_50" data-name="Group 50" transform="translate(3.6 17.55)">
        <g id="Group_49" data-name="Group 49">
            <path id="Path_26" d="M64.9 316h-.45a.45.45 0 0 0-.45.45v.45a.45.45 0 0 0 .45.45h.45a.45.45 0 0 0 .45-.45v-.45a.45.45 0 0 0-.45-.45z" class="cls-1" data-name="Path 26" transform="translate(-64 -316)"/>
        </g>
    </g>
    <g id="Group_52" data-name="Group 52" transform="translate(1.8 19.35)">
        <g id="Group_51" data-name="Group 51">
            <path id="Path_27" d="M32.9 348h-.45a.45.45 0 0 0-.45.45v.45a.45.45 0 0 0 .45.45h.45a.45.45 0 0 0 .45-.45v-.45a.45.45 0 0 0-.45-.45z" class="cls-1" data-name="Path 27" transform="translate(-32 -348)"/>
        </g>
    </g>
    <g id="Group_54" data-name="Group 54" transform="translate(3.6 19.35)">
        <g id="Group_53" data-name="Group 53">
            <path id="Path_28" d="M64.9 348h-.45a.45.45 0 0 0-.45.45v.45a.45.45 0 0 0 .45.45h.45a.45.45 0 0 0 .45-.45v-.45a.45.45 0 0 0-.45-.45z" class="cls-1" data-name="Path 28" transform="translate(-64 -348)"/>
        </g>
    </g>
    <g id="Group_56" data-name="Group 56" transform="translate(1.8 21.15)">
        <g id="Group_55" data-name="Group 55">
            <path id="Path_29" d="M32.9 380h-.45a.45.45 0 0 0-.45.45v.45a.45.45 0 0 0 .45.45h.45a.45.45 0 0 0 .45-.45v-.45a.45.45 0 0 0-.45-.45z" class="cls-1" data-name="Path 29" transform="translate(-32 -380)"/>
        </g>
    </g>
    <g id="Group_58" data-name="Group 58" transform="translate(3.6 21.15)">
        <g id="Group_57" data-name="Group 57">
            <path id="Path_30" d="M64.9 380h-.45a.45.45 0 0 0-.45.45v.45a.45.45 0 0 0 .45.45h.45a.45.45 0 0 0 .45-.45v-.45a.45.45 0 0 0-.45-.45z" class="cls-1" data-name="Path 30" transform="translate(-64 -380)"/>
        </g>
    </g>
    <g id="Group_60" data-name="Group 60" transform="translate(1.8 22.95)">
        <g id="Group_59" data-name="Group 59">
            <path id="Path_31" d="M32.9 412h-.45a.45.45 0 0 0-.45.45v.45a.45.45 0 0 0 .45.45h.45a.45.45 0 0 0 .45-.45v-.45a.45.45 0 0 0-.45-.45z" class="cls-1" data-name="Path 31" transform="translate(-32 -412)"/>
        </g>
    </g>
    <g id="Group_62" data-name="Group 62" transform="translate(3.6 22.95)">
        <g id="Group_61" data-name="Group 61">
            <path id="Path_32" d="M64.9 412h-.45a.45.45 0 0 0-.45.45v.45a.45.45 0 0 0 .45.45h.45a.45.45 0 0 0 .45-.45v-.45a.45.45 0 0 0-.45-.45z" class="cls-1" data-name="Path 32" transform="translate(-64 -412)"/>
        </g>
    </g>
    <g id="Group_64" data-name="Group 64" transform="translate(22.5 5.85)">
        <g id="Group_63" data-name="Group 63">
            <path id="Path_33" d="M402.25 108h-1.8a.45.45 0 0 0-.45.45v1.8a.45.45 0 0 0 .45.45h1.8a.45.45 0 0 0 .45-.45v-1.8a.45.45 0 0 0-.45-.45zm-.45 1.8h-.9v-.9h.9z" class="cls-1" data-name="Path 33" transform="translate(-400 -108)"/>
        </g>
    </g>
    <g id="Group_66" data-name="Group 66" transform="translate(22.5 9.45)">
        <g id="Group_65" data-name="Group 65">
            <path id="Path_34" d="M402.25 172h-1.8a.45.45 0 0 0-.45.45v1.8a.45.45 0 0 0 .45.45h1.8a.45.45 0 0 0 .45-.45v-1.8a.45.45 0 0 0-.45-.45zm-.45 1.8h-.9v-.9h.9z" class="cls-1" data-name="Path 34" transform="translate(-400 -172)"/>
        </g>
    </g>
    <g id="Group_68" data-name="Group 68" transform="translate(22.5 13.05)">
        <g id="Group_67" data-name="Group 67">
            <path id="Path_35" d="M402.25 236h-1.8a.45.45 0 0 0-.45.45v1.8a.45.45 0 0 0 .45.45h1.8a.45.45 0 0 0 .45-.45v-1.8a.45.45 0 0 0-.45-.45zm-.45 1.8h-.9v-.9h.9z" class="cls-1" data-name="Path 35" transform="translate(-400 -236)"/>
        </g>
    </g>
    <g id="Group_70" data-name="Group 70" transform="translate(22.5 16.65)">
        <g id="Group_69" data-name="Group 69">
            <path id="Path_36" d="M402.25 300h-1.8a.45.45 0 0 0-.45.45v1.8a.45.45 0 0 0 .45.45h1.8a.45.45 0 0 0 .45-.45v-1.8a.45.45 0 0 0-.45-.45zm-.45 1.8h-.9v-.9h.9z" class="cls-1" data-name="Path 36" transform="translate(-400 -300)"/>
        </g>
    </g>
    <g id="Group_72" data-name="Group 72" transform="translate(22.5 20.25)">
        <g id="Group_71" data-name="Group 71">
            <path id="Path_37" d="M402.25 364h-1.8a.45.45 0 0 0-.45.45v1.8a.45.45 0 0 0 .45.45h1.8a.45.45 0 0 0 .45-.45v-1.8a.45.45 0 0 0-.45-.45zm-.45 1.8h-.9v-.9h.9z" class="cls-1" data-name="Path 37" transform="translate(-400 -364)"/>
        </g>
    </g>
</svg>
